# xmcd
#
# Track frame offsets: 
#        150
#        23785
#        44099
#        63603
#        91557
#        108129
#        131041
#        155378
#        183586
#        201209
#        219843
#        242046
#
# Disc length: 3502 seconds
#
# Revision: 0
# Processed by: cddbd v1.5.2PL0 Copyright (c) Steve Scherf et al.
# Submitted via: ExactAudioCopy v1.3
#
DISCID=a10dac0c
DTITLE=L.C. Williams and The Driver - In Another Bar
DYEAR=2018
DGENRE=blues
TTITLE0=Let's Ride
TTITLE1=Stop a While
TTITLE2=Missing Lester
TTITLE3=One Way Ticket
TTITLE4=Harp Thing
TTITLE5=This Was Nice
TTITLE6=Paradise
TTITLE7=Rollin' and Tumblin'
TTITLE8=In Another Bar
TTITLE9=Ain't Worried
TTITLE10=Let's Try Again
TTITLE11=Storm Clouds
EXTD=
EXTT0=
EXTT1=
EXTT2=
EXTT3=
EXTT4=
EXTT5=
EXTT6=
EXTT7=
EXTT8=
EXTT9=
EXTT10=
EXTT11=
PLAYORDER=
